<?xml version="1.0" encoding="UTF-8"?><svg id="Orange" xmlns="http://www.w3.org/2000/svg" viewBox="0 0 400 400"><defs><style>.cls-1{fill:#1d1d1b;}.cls-1,.cls-2{stroke-width:0px;}.cls-2{fill:#56b257;}</style></defs><path class="cls-2" d="M202.9,194.33v23.4h-2.15v-3.28c-1.36,2.24-3.66,3.44-6.4,3.44-4.73,0-8.26-3.44-8.26-8.45s3.53-8.42,8.26-8.42c2.65,0,4.92,1.13,6.31,3.28v-9.97h2.24ZM200.69,209.44c0-3.88-2.65-6.47-6.15-6.47s-6.18,2.59-6.18,6.47,2.65,6.47,6.18,6.47,6.15-2.59,6.15-6.47Z"/><path class="cls-2" d="M208.64,195.91c0-.85.73-1.58,1.64-1.58s1.64.69,1.64,1.55c0,.91-.69,1.64-1.64,1.64s-1.64-.73-1.64-1.61ZM209.14,201.14h2.24v16.59h-2.24v-16.59Z"/><path class="cls-2" d="M215.32,215.84l1.01-1.77c1.32,1.04,3.56,1.86,5.9,1.86,3.15,0,4.45-1.07,4.45-2.71,0-4.32-10.75-.92-10.75-7.48,0-2.71,2.33-4.73,6.56-4.73,2.15,0,4.48.6,5.87,1.54l-.98,1.8c-1.45-1.01-3.19-1.42-4.89-1.42-3,0-4.32,1.17-4.32,2.74,0,4.48,10.75,1.1,10.75,7.47,0,2.87-2.52,4.73-6.84,4.73-2.74,0-5.39-.88-6.75-2.05Z"/><path class="cls-2" d="M249.85,209.44c0,5.05-3.53,8.45-8.26,8.45-2.65,0-4.92-1.13-6.31-3.28v9.24h-2.24v-22.71h2.14v3.28c1.36-2.21,3.66-3.41,6.4-3.41,4.73,0,8.26,3.41,8.26,8.42ZM247.61,209.44c0-3.85-2.68-6.47-6.18-6.47s-6.18,2.62-6.18,6.47,2.65,6.47,6.18,6.47,6.18-2.59,6.18-6.47Z"/><path class="cls-2" d="M254.42,194.33h2.24v23.4h-2.24v-23.4Z"/><path class="cls-2" d="M275.43,207.45v10.28h-2.15v-2.59c-1.01,1.7-2.96,2.74-5.71,2.74-3.75,0-6.06-1.96-6.06-4.83,0-2.55,1.64-4.7,6.4-4.7h5.27v-1.01c0-2.84-1.61-4.38-4.7-4.38-2.15,0-4.16.76-5.52,1.96l-1.01-1.67c1.67-1.42,4.13-2.24,6.75-2.24,4.29,0,6.72,2.14,6.72,6.43ZM273.19,212.75v-2.71h-5.2c-3.22,0-4.26,1.26-4.26,2.96,0,1.92,1.55,3.12,4.19,3.12s4.38-1.2,5.27-3.38Z"/><path class="cls-2" d="M295.45,201.14l-8.29,18.58c-1.39,3.25-3.15,4.29-5.52,4.29-1.55,0-3.03-.5-4.04-1.51l1.04-1.67c.82.82,1.83,1.26,3.03,1.26,1.48,0,2.49-.69,3.44-2.78l.73-1.61-7.41-16.56h2.33l6.24,14.1,6.25-14.1h2.21Z"/><path class="cls-1" d="M175.5,187.33l2.8-5.93c-3.71-2.45-8.79-4.11-13.98-4.11-8.67,0-14.55,4.28-14.55,11.13,0,14.21,21.57,9.24,21.57,18.14,0,3.08-2.79,4.85-7.47,4.85-4.28,0-9.41-2.05-13.52-5.82l-2.91,5.82c4.11,3.76,10.04,6.33,16.32,6.33,8.79,0,15.07-4.39,15.07-11.52.05-14.38-21.51-9.7-21.51-18.43,0-2.68,2.57-4.17,6.5-4.17,3.03,0,7.36,1.08,11.7,3.71"/><path class="cls-1" d="M146.86,197.54c0-8.18-4.76-14.97-11.84-18.17l-2.65,5.68c4.5,2.33,7.59,6.98,7.59,12.49,0,7.93-6.39,14.21-14.21,14.21s-14.38-6.28-14.38-14.21c0-5.49,3.12-10.13,7.65-12.47l-2.66-5.7c-7.08,3.18-11.84,9.95-11.84,18.17,0,11.41,9.24,20.25,21.17,20.25s21.17-8.84,21.17-20.25"/><rect class="cls-1" x="122.6" y="174.63" width="6.15" height="16.8"/><path class="cls-1" d="M190.76,183.63l-4.87,4.99v2.76h11.72v-3.33h-6.56l3-3.12c1.17-1.22,1.98-2.22,2.41-3.01.44-.79.65-1.61.65-2.46,0-1.57-.54-2.81-1.63-3.72-1.09-.91-2.35-1.37-3.78-1.37s-2.62.31-3.54.93c-.93.62-1.78,1.53-2.56,2.74l2.97,1.76c.94-1.49,1.93-2.24,2.97-2.24.57,0,1.04.19,1.4.56.37.37.55.84.55,1.39s-.21,1.13-.63,1.72c-.42.6-1.12,1.39-2.11,2.39"/></svg>