<?xml version="1.0" encoding="UTF-8"?><svg id="Grå" xmlns="http://www.w3.org/2000/svg" viewBox="0 0 375 40"><defs><style>.cls-1{fill:#1d1d1b;}.cls-1,.cls-2{stroke-width:0px;}.cls-2{fill:#56b257;}</style></defs><path class="cls-2" d="M76.24,15.46v18.14h-1.66v-2.54c-1.05,1.74-2.84,2.66-4.96,2.66-3.67,0-6.41-2.66-6.41-6.55s2.74-6.53,6.41-6.53c2.05,0,3.81.88,4.89,2.54v-7.72h1.74ZM74.53,27.17c0-3.01-2.05-5.01-4.77-5.01s-4.79,2-4.79,5.01,2.05,5.01,4.79,5.01,4.77-2,4.77-5.01Z"/><path class="cls-2" d="M80.69,16.68c0-.66.56-1.22,1.27-1.22s1.27.54,1.27,1.2c0,.71-.54,1.27-1.27,1.27s-1.27-.56-1.27-1.25ZM81.08,20.74h1.74v12.86h-1.74v-12.86Z"/><path class="cls-2" d="M85.87,32.13l.78-1.37c1.03.81,2.76,1.44,4.57,1.44,2.44,0,3.45-.83,3.45-2.1,0-3.35-8.34-.71-8.34-5.79,0-2.1,1.81-3.67,5.08-3.67,1.66,0,3.47.46,4.55,1.2l-.76,1.39c-1.12-.78-2.47-1.1-3.79-1.1-2.32,0-3.35.9-3.35,2.13,0,3.47,8.33.86,8.33,5.79,0,2.22-1.96,3.67-5.3,3.67-2.13,0-4.18-.68-5.23-1.59Z"/><path class="cls-2" d="M112.63,27.17c0,3.91-2.74,6.55-6.4,6.55-2.05,0-3.81-.88-4.89-2.54v7.16h-1.74v-17.6h1.66v2.54c1.05-1.71,2.84-2.64,4.96-2.64,3.67,0,6.4,2.64,6.4,6.53ZM110.9,27.17c0-2.98-2.08-5.01-4.79-5.01s-4.79,2.03-4.79,5.01,2.05,5.01,4.79,5.01,4.79-2,4.79-5.01Z"/><path class="cls-2" d="M116.17,15.46h1.74v18.14h-1.74V15.46Z"/><path class="cls-2" d="M132.45,25.63v7.97h-1.66v-2c-.78,1.32-2.3,2.13-4.42,2.13-2.91,0-4.69-1.52-4.69-3.74,0-1.98,1.27-3.64,4.96-3.64h4.08v-.78c0-2.2-1.25-3.4-3.64-3.4-1.66,0-3.23.59-4.28,1.52l-.78-1.29c1.3-1.1,3.2-1.74,5.23-1.74,3.32,0,5.21,1.66,5.21,4.99ZM130.71,29.74v-2.1h-4.03c-2.49,0-3.3.98-3.3,2.3,0,1.49,1.2,2.42,3.25,2.42s3.4-.93,4.08-2.62Z"/><path class="cls-2" d="M147.97,20.74l-6.43,14.4c-1.08,2.52-2.44,3.32-4.28,3.32-1.2,0-2.35-.39-3.13-1.17l.81-1.3c.64.64,1.42.98,2.35.98,1.15,0,1.93-.54,2.67-2.15l.56-1.25-5.74-12.83h1.81l4.84,10.93,4.84-10.93h1.71Z"/><path class="cls-1" d="M55.01,10.03l2.17-4.6c-2.87-1.9-6.81-3.18-10.83-3.18-6.72,0-11.28,3.32-11.28,8.62,0,11.01,16.71,7.16,16.71,14.06,0,2.39-2.17,3.76-5.79,3.76-3.31,0-7.3-1.59-10.48-4.51l-2.26,4.51c3.18,2.92,7.78,4.91,12.65,4.91,6.81,0,11.68-3.4,11.68-8.93.04-11.14-16.67-7.52-16.67-14.28,0-2.08,1.99-3.23,5.04-3.23,2.34,0,5.71.84,9.07,2.87"/><path class="cls-1" d="M32.81,17.95c0-6.34-3.69-11.6-9.18-14.08l-2.05,4.4c3.49,1.81,5.88,5.41,5.88,9.68,0,6.15-4.95,11.01-11.01,11.01s-11.14-4.86-11.14-11.01c0-4.25,2.42-7.85,5.93-9.66l-2.06-4.42C3.69,6.33,0,11.57,0,17.95,0,26.79,7.16,33.64,16.41,33.64s16.41-6.85,16.41-15.7"/><rect class="cls-1" x="14.01" y=".19" width="4.77" height="13.02"/><path class="cls-1" d="M66.84,7.17l-3.78,3.87v2.14h9.08v-2.58h-5.09l2.32-2.41c.91-.95,1.53-1.72,1.87-2.33.34-.61.51-1.24.51-1.91,0-1.22-.42-2.18-1.26-2.88C69.65.35,68.68,0,67.56,0s-2.03.24-2.74.72c-.72.48-1.38,1.19-1.98,2.12l2.3,1.36c.73-1.15,1.49-1.73,2.3-1.73.44,0,.8.14,1.09.43.28.29.42.65.42,1.08s-.16.88-.49,1.34c-.33.46-.87,1.08-1.63,1.85"/></svg>