<?xml version="1.0" encoding="UTF-8"?>
<svg id="Orange" xmlns="http://www.w3.org/2000/svg" viewBox="0 0 400 400">
    <defs>
        <style>.cls-1{fill:#2b2523;}.cls-1,.cls-2{stroke-width:0px;}.cls-3{isolation:isolate;}.cls-2{fill:#58b257;}
        </style>
    </defs>
    <g class="cls-3">
        <path class="cls-2"
              d="M130.89,207.34v43.7h-4v-6.13c-2.53,4.18-6.83,6.42-11.96,6.42-8.84,0-15.43-6.42-15.43-15.79s6.6-15.73,15.43-15.73c4.95,0,9.19,2.12,11.78,6.13v-18.61h4.18ZM126.77,235.56c0-7.25-4.95-12.07-11.48-12.07s-11.54,4.83-11.54,12.07,4.95,12.07,11.54,12.07,11.48-4.83,11.48-12.07Z"/>
        <path class="cls-2"
              d="M141.61,210.29c0-1.59,1.36-2.95,3.06-2.95s3.06,1.3,3.06,2.89c0,1.71-1.29,3.06-3.06,3.06s-3.06-1.35-3.06-3ZM142.55,220.07h4.18v30.98h-4.18v-30.98Z"/>
        <path class="cls-2"
              d="M154.09,247.51l1.88-3.3c2.47,1.94,6.65,3.47,11.01,3.47,5.89,0,8.3-2,8.3-5.07,0-8.07-20.08-1.71-20.08-13.96,0-5.07,4.36-8.83,12.25-8.83,4.01,0,8.36,1.12,10.96,2.89l-1.82,3.36c-2.71-1.88-5.95-2.65-9.13-2.65-5.6,0-8.07,2.18-8.07,5.12,0,8.36,20.08,2.06,20.08,13.96,0,5.36-4.71,8.83-12.78,8.83-5.12,0-10.07-1.65-12.6-3.83Z"/>
        <path class="cls-2"
              d="M218.58,235.56c0,9.42-6.6,15.79-15.43,15.79-4.95,0-9.19-2.12-11.78-6.13v17.26h-4.18v-42.41h4v6.12c2.53-4.12,6.83-6.36,11.96-6.36,8.84,0,15.43,6.36,15.43,15.73ZM214.4,235.56c0-7.19-5.01-12.07-11.54-12.07s-11.54,4.89-11.54,12.07,4.95,12.07,11.54,12.07,11.54-4.83,11.54-12.07Z"/>
        <path class="cls-2" d="M227.12,207.34h4.18v43.7h-4.18v-43.7Z"/>
        <path class="cls-2"
              d="M266.35,231.84v19.2h-4.01v-4.83c-1.88,3.18-5.54,5.12-10.66,5.12-7.01,0-11.31-3.65-11.31-9.01,0-4.77,3.06-8.78,11.96-8.78h9.84v-1.88c0-5.3-3-8.19-8.78-8.19-4,0-7.77,1.41-10.31,3.65l-1.88-3.12c3.12-2.65,7.72-4.18,12.6-4.18,8.01,0,12.55,4.01,12.55,12.02ZM262.16,241.74v-5.07h-9.72c-6.01,0-7.95,2.36-7.95,5.54,0,3.59,2.88,5.83,7.83,5.83s8.19-2.24,9.84-6.3Z"/>
        <path class="cls-2"
              d="M303.15,220.07l-15.49,34.69c-2.59,6.07-5.89,8.01-10.31,8.01-2.88,0-5.65-.94-7.54-2.83l1.95-3.12c1.53,1.53,3.42,2.36,5.65,2.36,2.77,0,4.65-1.3,6.42-5.18l1.35-3-13.84-30.92h4.36l11.66,26.33,11.66-26.33h4.12Z"/>
    </g>
    <path class="cls-1"
          d="M258.14,123.13l6.61-14c-9.85-6.31-21.3-9.67-33-9.7-20.48,0-34.35,10.11-34.35,26.28,0,33.55,50.93,21.83,50.93,42.85,0,7.27-6.6,11.45-17.66,11.45-10.1,0-22.23-4.85-31.93-13.74l-6.89,13.74c10.56,9.56,24.28,14.9,38.53,15,20.76,0,35.58-10.37,35.58-27.21.13-34-50.8-22.91-50.8-43.52,0-6.34,6.07-9.84,15.36-9.84,7.15,0,17.39,2.56,27.62,8.76"/>
    <path class="cls-1"
          d="M190.5,147.25c0-19.32-11.24-35.36-28-42.9l-6.25,13.41c11.05,5.67,17.97,17.07,17.92,29.49.04,18.48-14.9,33.51-33.39,33.55-.05,0-.11,0-.16,0-18.46,0-34-14.82-34-33.55,0-12.44,6.98-23.82,18.07-29.45l-6.25-13.47c-16.73,7.52-28,23.5-28,42.92,0,26.95,21.83,47.83,50,47.83s50-20.88,50-47.83"/>
    <rect class="cls-1" x="133.2" y="93.15" width="14.53" height="39.68"/>
    <path class="cls-1"
          d="M294.19,114.41l-11.51,11.79v6.52h27.68v-7.87h-15.5l7.08-7.35c2.18-2.13,4.09-4.52,5.7-7.11,1.01-1.77,1.54-3.77,1.54-5.81.15-3.37-1.27-6.61-3.85-8.79-2.48-2.12-5.63-3.26-8.89-3.23-2.95-.12-5.86.64-8.37,2.19-2.42,1.72-4.46,3.92-6,6.46l7,4.16c2.21-3.52,4.55-5.28,7-5.28,2.46-.08,4.52,1.85,4.6,4.32,0,.09,0,.19,0,.28-.05,1.48-.57,2.9-1.48,4.07-1.52,2.01-3.19,3.9-5,5.65"/>
</svg>