<?xml version="1.0" encoding="UTF-8"?><svg id="Grå" xmlns="http://www.w3.org/2000/svg" viewBox="0 0 363.36 96.95"><defs><style>.cls-1{fill:#1d1d1b;}.cls-1,.cls-2{stroke-width:0px;}.cls-2{fill:#56b257;}</style></defs><path class="cls-2" d="M185.79,38.48v43.95h-4.03v-6.16c-2.55,4.21-6.87,6.46-12.02,6.46-8.88,0-15.52-6.46-15.52-15.88s6.63-15.82,15.52-15.82c4.98,0,9.24,2.13,11.85,6.16v-18.72h4.21ZM181.64,66.85c0-7.29-4.98-12.14-11.55-12.14s-11.61,4.86-11.61,12.14,4.98,12.14,11.61,12.14,11.55-4.86,11.55-12.14Z"/><path class="cls-2" d="M196.57,41.44c0-1.6,1.36-2.96,3.08-2.96s3.08,1.3,3.08,2.9c0,1.72-1.3,3.08-3.08,3.08s-3.08-1.36-3.08-3.02ZM197.51,51.27h4.21v31.16h-4.21v-31.16Z"/><path class="cls-2" d="M209.12,78.88l1.9-3.32c2.49,1.96,6.69,3.5,11.08,3.5,5.92,0,8.35-2.01,8.35-5.09,0-8.12-20.2-1.72-20.2-14.04,0-5.09,4.38-8.89,12.32-8.89,4.03,0,8.41,1.13,11.02,2.9l-1.84,3.38c-2.72-1.9-5.98-2.67-9.18-2.67-5.63,0-8.12,2.19-8.12,5.15,0,8.41,20.2,2.07,20.2,14.04,0,5.39-4.74,8.88-12.85,8.88-5.15,0-10.13-1.66-12.68-3.85Z"/><path class="cls-2" d="M273.98,66.85c0,9.48-6.63,15.88-15.52,15.88-4.98,0-9.24-2.13-11.85-6.16v17.36h-4.21v-42.65h4.03v6.16c2.55-4.15,6.87-6.4,12.02-6.4,8.88,0,15.52,6.4,15.52,15.82ZM269.78,66.85c0-7.23-5.04-12.14-11.61-12.14s-11.61,4.92-11.61,12.14,4.98,12.14,11.61,12.14,11.61-4.86,11.61-12.14Z"/><path class="cls-2" d="M282.57,38.48h4.21v43.95h-4.21v-43.95Z"/><path class="cls-2" d="M322.02,63.12v19.31h-4.03v-4.86c-1.9,3.2-5.57,5.15-10.72,5.15-7.05,0-11.37-3.67-11.37-9.06,0-4.8,3.08-8.83,12.02-8.83h9.89v-1.9c0-5.33-3.02-8.23-8.83-8.23-4.03,0-7.82,1.42-10.37,3.67l-1.9-3.14c3.14-2.67,7.76-4.21,12.68-4.21,8.06,0,12.62,4.03,12.62,12.08ZM317.81,73.07v-5.09h-9.77c-6.04,0-8,2.37-8,5.57,0,3.61,2.9,5.86,7.88,5.86s8.23-2.25,9.89-6.34Z"/><path class="cls-2" d="M359.63,51.27l-15.58,34.89c-2.61,6.1-5.92,8.06-10.37,8.06-2.9,0-5.69-.95-7.58-2.84l1.95-3.14c1.54,1.54,3.44,2.37,5.69,2.37,2.78,0,4.68-1.3,6.46-5.21l1.36-3.02-13.92-31.1h4.38l11.73,26.48,11.73-26.48h4.15Z"/><path class="cls-1" d="M134.32,25.31l5.25-11.15c-6.97-4.61-16.51-7.72-26.26-7.72-16.29,0-27.33,8.04-27.33,20.9,0,26.69,40.51,17.36,40.51,34.08,0,5.79-5.25,9.11-14.04,9.11-8.03,0-17.68-3.86-25.4-10.93l-5.47,10.93c7.72,7.07,18.86,11.89,30.65,11.89,16.51,0,28.3-8.25,28.3-21.64.1-27.01-40.41-18.22-40.41-34.62,0-5.04,4.82-7.83,12.22-7.83,5.68,0,13.83,2.04,21.97,6.97"/><path class="cls-1" d="M80.52,44.49c0-15.36-8.94-28.12-22.25-34.12l-4.97,10.66c8.46,4.38,14.25,13.11,14.25,23.46,0,14.9-12,26.69-26.69,26.69s-27.01-11.79-27.01-26.69c0-10.31,5.86-19.03,14.37-23.42l-4.99-10.71C9.93,16.34,1,29.05,1,44.49c0,21.44,17.36,38.05,39.76,38.05s39.76-16.61,39.76-38.05"/><rect class="cls-1" x="34.95" y="1.47" width="11.56" height="31.56"/><path class="cls-1" d="M162.99,18.38l-9.15,9.38v5.18h22.02v-6.26h-12.33l5.63-5.85c2.21-2.29,3.72-4.18,4.53-5.65.82-1.47,1.23-3.02,1.23-4.62,0-2.95-1.02-5.28-3.06-6.99-2.04-1.71-4.41-2.57-7.1-2.57s-4.91.58-6.65,1.74c-1.74,1.16-3.35,2.87-4.8,5.14l5.58,3.31c1.76-2.8,3.62-4.2,5.58-4.2,1.07,0,1.95.35,2.63,1.05.69.7,1.03,1.57,1.03,2.61s-.39,2.12-1.18,3.24c-.79,1.12-2.11,2.61-3.95,4.49"/></svg>